PathFileType	4	(X/Y/Z)	C:\Users\Graham\Documents\MATLAB\MOtoNMS_v2_2\MyData\ElaboratedData\S6\17-05-19\staticElaborations\Static1\Static1\\Static1.trc
DataRate	CameraRate	NumFrames	NumMarkers	Units	OrigDataRate	DataStartFrame
100	100	6	38	mm	100	2
Frame#	Time	V_Sacral			R_ASIS			L_ASIS			R_Knee_Lat			R_Knee_Med			R_Thigh_Upper			R_Thigh_Front			R_Thigh_Rear			L_Knee_Lat			L_Knee_Med			L_Thigh_Upper			L_Thigh_Front			L_Thigh_Rear			R_Ankle_Lat			R_Ankle_Med			R_Shank_Upper			R_Shank_Front			R_Shank_Rear			L_Ankle_Lat			L_Ankle_Med			L_Shank_Upper			L_Shank_Front			L_Shank_Rear			R_Heel			R_MTP1			R_MTP5			L_Heel			L_MTP1			L_MTP5			Clavicle			R_Acromium			L_Acromium			LAJC			RAJC			LHJC			RHJC			LKJC			RKJC		
		X1	Y1	Z1	X2	Y2	Z2	X3	Y3	Z3	X4	Y4	Z4	X5	Y5	Z5	X6	Y6	Z6	X7	Y7	Z7	X8	Y8	Z8	X9	Y9	Z9	X10	Y10	Z10	X11	Y11	Z11	X12	Y12	Z12	X13	Y13	Z13	X14	Y14	Z14	X15	Y15	Z15	X16	Y16	Z16	X17	Y17	Z17	X18	Y18	Z18	X19	Y19	Z19	X20	Y20	Z20	X21	Y21	Z21	X22	Y22	Z22	X23	Y23	Z23	X24	Y24	Z24	X25	Y25	Z25	X26	Y26	Z26	X27	Y27	Z27	X28	Y28	Z28	X29	Y29	Z29	X30	Y30	Z30	X31	Y31	Z31	X32	Y32	Z32	X33	Y33	Z33	X34	Y34	Z34	X35	Y35	Z35	X36	Y36	Z36	X37	Y37	Z37	X38	Y38	Z38	

135	1.340000	-123.903751	1063.677782	17.548618	84.700946	1059.605300	168.358353	89.294468	1056.365984	-99.642459	-32.283800	547.393261	208.287057	7.196600	539.142720	88.188856	94.020702	814.282302	198.614601	95.052443	701.862205	150.693109	51.498706	706.847792	213.129576	-17.248915	559.573330	-139.349256	10.461098	530.518619	-24.167256	115.802773	803.599541	-99.600943	96.987232	689.456852	-54.980873	72.872515	689.958402	-130.284766	-134.954117	102.963789	206.061525	-80.888521	111.239871	120.447010	-12.304391	366.251737	189.981542	-38.915678	250.993717	149.742081	-58.590183	256.784142	214.812382	-115.768749	97.988565	-152.683219	-68.130952	100.509804	-63.842253	-4.060844	373.933335	-129.725100	-22.714032	265.866004	-91.110992	-47.002713	268.411617	-159.047894	-187.787064	32.217966	146.321331	45.529989	61.179541	187.307579	-0.935228	54.987201	256.584204	-173.387929	50.439098	-99.753408	66.469945	53.674173	-112.683677	28.154361	48.301319	-200.915377	74.847025	1484.721597	17.327293	-21.257266	1539.967640	222.668612	-6.728817	1528.900601	-183.669842	-91.949850	99.249184	-108.262736	-107.921319	107.101830	163.254268	25.428015	967.233312	-61.381211	22.146102	969.547691	130.096115	-3.393908	545.045975	-81.758256	-12.543600	543.267990	148.237956	
136	1.350000	-123.846719	1063.682839	17.525224	84.740331	1059.596239	168.352826	89.369772	1056.343931	-99.652227	-32.278091	547.392078	208.277341	7.211807	539.141892	88.174485	94.034083	814.273479	198.602773	95.058945	701.854110	150.682771	51.506942	706.844692	213.120283	-17.236165	559.567715	-139.321053	10.464874	530.519099	-24.162392	115.836893	803.578886	-99.590674	97.012734	689.444271	-54.967792	72.907664	689.945353	-130.278834	-134.953378	102.965647	206.058001	-80.886370	111.240685	120.445974	-12.301217	366.255579	189.978357	-38.911504	250.995300	149.741224	-58.591654	256.786807	214.808312	-115.767603	97.989625	-152.678930	-68.129176	100.509975	-63.841806	-4.053890	373.935509	-129.719592	-22.708667	265.866810	-91.108090	-46.996483	268.414802	-159.046984	-187.786794	32.218905	146.320106	45.535699	61.180340	187.304672	-0.933493	54.987563	256.583951	-173.387063	50.440466	-99.752554	66.471686	53.673292	-112.684515	28.154834	48.299093	-200.915178	74.928861	1484.707555	17.302753	-21.179420	1539.957241	222.639437	-6.615048	1528.876757	-183.711511	-91.948390	99.249800	-108.260368	-107.919874	107.103166	163.251987	25.488651	967.217967	-61.394589	22.181080	969.541625	130.085494	-3.385645	545.043407	-81.741723	-12.533142	543.266985	148.225913	
137	1.360000	-123.794231	1063.686881	17.500370	84.774830	1059.589828	168.348841	89.441547	1056.322681	-99.662170	-32.270688	547.391348	208.268091	7.232348	539.141690	88.162686	94.047723	814.267241	198.595245	95.068786	701.849007	150.676457	51.515470	706.841558	213.113971	-17.224705	559.563394	-139.299995	10.466961	530.521058	-24.156010	115.872283	803.560324	-99.577231	97.037005	689.433157	-54.951668	72.942269	689.932860	-130.269876	-134.952630	102.968155	206.054293	-80.883001	111.241632	120.445373	-12.296573	366.259881	189.976263	-38.905899	250.997208	149.740227	-58.592332	256.789748	214.805148	-115.767312	97.990733	-152.671905	-68.127557	100.510207	-63.841497	-4.048691	373.939140	-129.714010	-22.704790	265.869035	-91.105560	-46.991048	268.418689	-159.046707	-187.786353	32.220090	146.318389	45.542972	61.181419	187.300474	-0.931552	54.987767	256.584009	-173.386349	50.442048	-99.751672	66.473411	53.672234	-112.685579	28.155021	48.297275	-200.915145	75.006948	1484.694306	17.278593	-21.103074	1539.949289	222.609716	-6.505824	1528.854809	-183.752381	-91.947435	99.250470	-108.256701	-107.917815	107.104894	163.249833	25.546558	967.202377	-61.407521	22.212361	969.536633	130.076450	-3.378872	545.042226	-81.728003	-12.519170	543.266519	148.215388	
138	1.370000	-123.746195	1063.690263	17.473949	84.805103	1059.586191	168.346035	89.509181	1056.302983	-99.672098	-32.261382	547.391406	208.259190	7.257807	539.141496	88.153512	94.062406	814.263666	198.592603	95.082815	701.846949	150.674663	51.525148	706.838586	213.110996	-17.214230	559.560482	-139.286022	10.467648	530.524529	-24.148347	115.908928	803.543937	-99.561349	97.060716	689.423717	-54.933373	72.976132	689.921248	-130.258583	-134.951844	102.971439	206.050593	-80.878415	111.242921	120.445163	-12.290269	366.264824	189.974961	-38.899024	250.999641	149.738876	-58.591874	256.793252	214.802880	-115.767738	97.992074	-152.662712	-68.125980	100.510691	-63.841301	-4.045067	373.944169	-129.708592	-22.702238	265.872809	-91.103480	-46.986323	268.423334	-159.047087	-187.785720	32.221615	146.316390	45.551248	61.182710	187.295148	-0.929572	54.987741	256.584342	-173.385878	50.443844	-99.750709	66.475060	53.670989	-112.686830	28.154879	48.295954	-200.915279	75.081461	1484.682353	17.255132	-21.028919	1539.943714	222.579906	-6.401579	1528.836937	-183.791146	-91.946859	99.251383	-108.252006	-107.915129	107.107180	163.247878	25.601372	967.187345	-61.419821	22.240489	969.533071	130.068804	-3.373291	545.042505	-81.717184	-12.501788	543.266451	148.206351	
139	1.380000	-123.702398	1063.693354	17.446124	84.831952	1059.585200	168.343990	89.572246	1056.285371	-99.681802	-32.250468	547.392482	208.250542	7.286945	539.141495	88.146830	94.078545	814.262571	198.594858	95.101119	701.847647	150.677341	51.536407	706.835986	213.111341	-17.204718	559.559056	-139.278677	10.466964	530.529440	-24.139648	115.946462	803.529591	-99.544030	97.084396	689.415968	-54.913997	73.008912	689.910735	-130.245792	-134.950938	102.975519	206.047094	-80.872801	111.244716	120.445242	-12.282454	366.270599	189.974128	-38.891228	251.002756	149.737054	-58.590211	256.797551	214.801422	-115.768680	97.993801	-152.652249	-68.124328	100.511595	-63.841159	-4.042907	373.950516	-129.703521	-22.700858	265.878180	-91.101814	-46.982294	268.428795	-159.048023	-187.784905	32.223539	146.314375	45.559832	61.184108	187.289016	-0.927722	54.987475	256.584892	-173.385682	50.445844	-99.749593	66.476570	53.669548	-112.688245	28.154406	48.295151	-200.915564	75.152850	1484.672035	17.232683	-20.957323	1539.940397	222.550447	-6.302064	1528.825048	-183.826710	-91.946504	99.252698	-108.246704	-107.911870	107.110117	163.246168	25.652797	967.173547	-61.431320	22.266048	969.531142	130.062314	-3.368877	545.044248	-81.709162	-12.481762	543.266989	148.198686	
140	1.390000	-123.662523	1063.696500	17.417328	84.856219	1059.586496	168.342275	89.630525	1056.270155	-99.691089	-32.238622	547.394649	208.242080	7.317900	539.142589	88.142328	94.096122	814.263569	198.601456	95.123062	701.850529	150.683904	51.549232	706.833958	213.114614	-17.196393	559.559177	-139.277392	10.464726	530.535628	-24.130147	115.984206	803.517006	-99.526460	97.108333	689.409762	-54.894732	73.040128	689.901436	-130.232395	-134.949787	102.980325	206.043971	-80.866508	111.247113	120.445476	-12.273535	366.277365	189.973453	-38.882956	251.006665	149.734761	-58.587514	256.802785	214.800612	-115.769851	97.996085	-152.641823	-68.122491	100.513045	-63.840998	-4.042177	373.958107	-129.698921	-22.700524	265.885123	-91.100430	-46.979021	268.435134	-159.049306	-187.783952	32.225877	146.312623	45.567991	61.185479	187.282519	-0.926147	54.987013	256.585588	-173.385729	50.448024	-99.748242	66.477879	53.667904	-112.689807	28.153648	48.294807	-200.915956	75.221757	1484.663528	17.211585	-20.888411	1539.939175	222.521745	-6.206432	1528.820596	-183.858246	-91.946171	99.254565	-108.241411	-107.908148	107.113719	163.244723	25.700641	967.161491	-61.441914	22.289600	969.530878	130.056674	-3.365834	545.047402	-81.703769	-12.460361	543.268619	148.192204	
